<svg xmlns="http://www.w3.org/2000/svg" width="210.901" height="50" viewBox="0 0 210.901 50">
  <g id="tit" transform="translate(-100.574 -705.641)">
    <path id="Path_19" data-name="Path 19" d="M37.522-61.5v6.44H30.047l-2.3,15.5h-6.5l2.265-15.5H17.328l-2.265,15.5H8.59l2.265-15.5H3.574V-61.5h8.285l.971-6.084H5.613v-6.44h8.123l2.1-14.337H22.15L20.144-74.023h6.181l2.1-14.337h6.5l-2.1,14.337h6.537v6.44H31.891L31.05-61.5Zm-12.1-6.084H19.141L18.3-61.5h6.117ZM46.68-87.162h31.23V-82.4L56.421-38.359l-7.67-3.722,17.864-36.57H46.68Z" transform="translate(97 794)" fill="#fff"/>
    <path id="Path_20" data-name="Path 20" d="M16.465-27.353l-2.939,1.618a4.984,4.984,0,0,0-1.638-1.2,4.913,4.913,0,0,0-1.9-.337,4.411,4.411,0,0,0-3.2,1.184,4.041,4.041,0,0,0-1.223,3.036,3.907,3.907,0,0,0,1.178,2.939,4.263,4.263,0,0,0,3.094,1.139A4.5,4.5,0,0,0,13.526-20.6l2.783,1.9a7.605,7.605,0,0,1-6.395,2.939,7.667,7.667,0,0,1-5.819-2.2,7.218,7.218,0,0,1-2.1-5.152,7.242,7.242,0,0,1,1.023-3.767,7.217,7.217,0,0,1,2.854-2.705,8.519,8.519,0,0,1,4.1-.984,8.307,8.307,0,0,1,3.767.835A7.149,7.149,0,0,1,16.465-27.353Zm10.33-3.21a7.465,7.465,0,0,1,3.748,1,7.2,7.2,0,0,1,2.738,2.706,7.27,7.27,0,0,1,.984,3.689,7.4,7.4,0,0,1-.99,3.728,7.145,7.145,0,0,1-2.7,2.712,7.453,7.453,0,0,1-3.767.977,7.026,7.026,0,0,1-5.172-2.155,7.15,7.15,0,0,1-2.142-5.236,7.126,7.126,0,0,1,2.421-5.5A7.071,7.071,0,0,1,26.794-30.563Zm.052,3.327a3.628,3.628,0,0,0-2.738,1.146,4.073,4.073,0,0,0-1.094,2.932A4.148,4.148,0,0,0,24.1-20.181a3.612,3.612,0,0,0,2.738,1.139,3.654,3.654,0,0,0,2.757-1.152,4.116,4.116,0,0,0,1.1-2.964A4.09,4.09,0,0,0,29.61-26.1,3.653,3.653,0,0,0,26.846-27.236Zm10.459-8.4h3.534v19.521H37.305Zm6.886,0h3.534v19.521H44.191Zm21.372,13.5H54.21a3.779,3.779,0,0,0,1.314,2.388,4.123,4.123,0,0,0,2.725.887,4.712,4.712,0,0,0,3.4-1.385l2.977,1.4a7.027,7.027,0,0,1-2.667,2.337,8.34,8.34,0,0,1-3.689.757,7.292,7.292,0,0,1-5.4-2.091,7.115,7.115,0,0,1-2.084-5.236,7.355,7.355,0,0,1,2.078-5.353,6.978,6.978,0,0,1,5.21-2.129,7.236,7.236,0,0,1,5.411,2.129,7.7,7.7,0,0,1,2.084,5.625Zm-3.547-2.783a3.545,3.545,0,0,0-1.379-1.916,3.992,3.992,0,0,0-2.388-.738,4.219,4.219,0,0,0-2.589.828,4.616,4.616,0,0,0-1.294,1.825ZM82.74-27.353,79.8-25.735a4.984,4.984,0,0,0-1.638-1.2,4.914,4.914,0,0,0-1.9-.337,4.411,4.411,0,0,0-3.2,1.184,4.041,4.041,0,0,0-1.223,3.036,3.907,3.907,0,0,0,1.178,2.939,4.263,4.263,0,0,0,3.094,1.139A4.5,4.5,0,0,0,79.8-20.6l2.783,1.9a7.605,7.605,0,0,1-6.395,2.939,7.667,7.667,0,0,1-5.819-2.2,7.218,7.218,0,0,1-2.1-5.152,7.242,7.242,0,0,1,1.023-3.767,7.217,7.217,0,0,1,2.854-2.705,8.519,8.519,0,0,1,4.1-.984,8.307,8.307,0,0,1,3.767.835A7.149,7.149,0,0,1,82.74-27.353Zm4.142-8.039H90.4V-30.2h2.1v3.042H90.4v11.042H86.882V-27.159H85.07V-30.2h1.812ZM97.114-36a2.17,2.17,0,0,1,1.6.673,2.232,2.232,0,0,1,.667,1.631,2.206,2.206,0,0,1-.66,1.612,2.145,2.145,0,0,1-1.579.667,2.175,2.175,0,0,1-1.612-.68,2.269,2.269,0,0,1-.667-1.65,2.17,2.17,0,0,1,.66-1.592A2.17,2.17,0,0,1,97.114-36Zm-1.773,5.8h3.547v14.084H95.341Zm13.889-.362a7.465,7.465,0,0,1,3.748,1,7.2,7.2,0,0,1,2.738,2.706,7.27,7.27,0,0,1,.984,3.689,7.4,7.4,0,0,1-.99,3.728,7.145,7.145,0,0,1-2.7,2.712,7.453,7.453,0,0,1-3.767.977,7.026,7.026,0,0,1-5.172-2.155,7.15,7.15,0,0,1-2.142-5.236,7.126,7.126,0,0,1,2.421-5.5A7.071,7.071,0,0,1,109.23-30.563Zm.052,3.327a3.628,3.628,0,0,0-2.738,1.146,4.073,4.073,0,0,0-1.094,2.932,4.148,4.148,0,0,0,1.081,2.977,3.612,3.612,0,0,0,2.738,1.139,3.654,3.654,0,0,0,2.757-1.152,4.116,4.116,0,0,0,1.1-2.964,4.09,4.09,0,0,0-1.081-2.945A3.653,3.653,0,0,0,109.282-27.236ZM120.116-30.2h3.521v1.437a8.5,8.5,0,0,1,2.181-1.4,5.3,5.3,0,0,1,2-.395,4.845,4.845,0,0,1,3.56,1.463,5.018,5.018,0,0,1,1.23,3.676v9.307h-3.5v-6.175a15.608,15.608,0,0,0-.227-3.353,2.3,2.3,0,0,0-.79-1.262,2.213,2.213,0,0,0-1.392-.434,2.61,2.61,0,0,0-1.845.718,3.833,3.833,0,0,0-1.068,1.987,16.009,16.009,0,0,0-.155,2.861v5.657h-3.521Z" transform="translate(178.867 770.007)" fill="#fff"/>
  </g>
</svg>
