<svg xmlns="http://www.w3.org/2000/svg" width="147.631" height="35" viewBox="0 0 147.631 35">
  <g id="tit" transform="translate(-100.574 -705.641)">
    <path id="Path_19" data-name="Path 19" d="M27.338-69.557v4.508H22.1L20.5-54.2H15.943l1.586-10.851H13.2L11.616-54.2H7.086L8.671-65.049h-5.1v-4.508h5.8l.68-4.259H5v-4.508h5.686L12.16-88.359h4.417l-1.4,10.036H19.5l1.472-10.036h4.553L24.053-78.324h4.576v4.508H23.4l-.589,4.259Zm-8.472-4.259H14.471l-.589,4.259h4.282ZM33.748-87.521H55.609v3.33L40.567-53.359,35.2-55.965l12.5-25.6H33.748Z" transform="translate(97 794)" fill="#fff"/>
    <path id="Path_20" data-name="Path 20" d="M12.123-29.947l-2.057,1.133a3.488,3.488,0,0,0-1.146-.843,3.439,3.439,0,0,0-1.328-.236,3.088,3.088,0,0,0-2.243.829,2.829,2.829,0,0,0-.856,2.125,2.735,2.735,0,0,0,.825,2.057,2.984,2.984,0,0,0,2.166.8,3.147,3.147,0,0,0,2.583-1.133l1.948,1.332a5.324,5.324,0,0,1-4.476,2.057,5.367,5.367,0,0,1-4.073-1.54,5.053,5.053,0,0,1-1.472-3.606,5.069,5.069,0,0,1,.716-2.637,5.052,5.052,0,0,1,2-1.894,5.963,5.963,0,0,1,2.868-.689,5.815,5.815,0,0,1,2.637.584A5,5,0,0,1,12.123-29.947Zm7.231-2.247a5.225,5.225,0,0,1,2.623.7A5.04,5.04,0,0,1,23.893-29.6a5.089,5.089,0,0,1,.689,2.583,5.178,5.178,0,0,1-.693,2.61A5,5,0,0,1,22-22.512a5.217,5.217,0,0,1-2.637.684,4.918,4.918,0,0,1-3.62-1.509A5.005,5.005,0,0,1,14.243-27a4.988,4.988,0,0,1,1.695-3.851A4.95,4.95,0,0,1,19.354-32.194Zm.036,2.329a2.54,2.54,0,0,0-1.916.8,2.851,2.851,0,0,0-.766,2.052,2.9,2.9,0,0,0,.757,2.084,2.528,2.528,0,0,0,1.917.8,2.558,2.558,0,0,0,1.93-.806,2.881,2.881,0,0,0,.77-2.075,2.863,2.863,0,0,0-.757-2.061A2.557,2.557,0,0,0,19.39-29.865Zm7.321-5.881h2.474v13.665H26.711Zm4.82,0h2.474v13.665H31.532ZM46.492-26.3H38.545a2.646,2.646,0,0,0,.92,1.672A2.886,2.886,0,0,0,41.372-24a3.3,3.3,0,0,0,2.383-.97l2.084.979a4.919,4.919,0,0,1-1.867,1.636,5.838,5.838,0,0,1-2.583.53,5.1,5.1,0,0,1-3.779-1.463,4.98,4.98,0,0,1-1.459-3.665A5.148,5.148,0,0,1,37.607-30.7a4.885,4.885,0,0,1,3.647-1.491A5.065,5.065,0,0,1,45.042-30.7,5.387,5.387,0,0,1,46.5-26.766Zm-2.483-1.948a2.482,2.482,0,0,0-.965-1.341,2.8,2.8,0,0,0-1.672-.517,2.953,2.953,0,0,0-1.812.58,3.232,3.232,0,0,0-.906,1.278Zm14.507-1.7-2.057,1.133a3.488,3.488,0,0,0-1.146-.843,3.439,3.439,0,0,0-1.328-.236,3.088,3.088,0,0,0-2.243.829,2.829,2.829,0,0,0-.856,2.125,2.735,2.735,0,0,0,.825,2.057,2.984,2.984,0,0,0,2.166.8,3.147,3.147,0,0,0,2.583-1.133l1.948,1.332a5.324,5.324,0,0,1-4.476,2.057,5.367,5.367,0,0,1-4.073-1.54,5.053,5.053,0,0,1-1.472-3.606,5.069,5.069,0,0,1,.716-2.637,5.052,5.052,0,0,1,2-1.894,5.963,5.963,0,0,1,2.868-.689,5.815,5.815,0,0,1,2.637.584A5,5,0,0,1,58.516-29.947Zm2.9-5.627H63.88v3.634h1.468v2.129H63.88v7.729H61.415v-7.729H60.147V-31.94h1.269ZM68.577-36a1.519,1.519,0,0,1,1.119.471,1.563,1.563,0,0,1,.467,1.142,1.544,1.544,0,0,1-.462,1.128,1.5,1.5,0,0,1-1.105.467,1.522,1.522,0,0,1-1.128-.476A1.589,1.589,0,0,1,67-34.423a1.519,1.519,0,0,1,.462-1.115A1.519,1.519,0,0,1,68.577-36Zm-1.241,4.06h2.483v9.859H67.336Zm9.723-.254a5.225,5.225,0,0,1,2.623.7A5.04,5.04,0,0,1,81.6-29.6a5.089,5.089,0,0,1,.689,2.583,5.178,5.178,0,0,1-.693,2.61,5,5,0,0,1-1.889,1.9,5.217,5.217,0,0,1-2.637.684,4.918,4.918,0,0,1-3.62-1.509A5.005,5.005,0,0,1,71.948-27a4.988,4.988,0,0,1,1.694-3.851A4.95,4.95,0,0,1,77.059-32.194Zm.036,2.329a2.54,2.54,0,0,0-1.917.8,2.851,2.851,0,0,0-.766,2.052,2.9,2.9,0,0,0,.757,2.084,2.528,2.528,0,0,0,1.916.8,2.558,2.558,0,0,0,1.93-.806,2.881,2.881,0,0,0,.77-2.075,2.863,2.863,0,0,0-.757-2.061A2.557,2.557,0,0,0,77.095-29.865Zm7.584-2.075h2.465v1.006a5.948,5.948,0,0,1,1.527-.983,3.706,3.706,0,0,1,1.4-.276,3.392,3.392,0,0,1,2.492,1.024,3.513,3.513,0,0,1,.861,2.573v6.515H90.977V-26.4a10.923,10.923,0,0,0-.159-2.347,1.607,1.607,0,0,0-.553-.883,1.549,1.549,0,0,0-.974-.3,1.827,1.827,0,0,0-1.291.5,2.683,2.683,0,0,0-.748,1.391,11.208,11.208,0,0,0-.109,2v3.96H84.679Z" transform="translate(154.781 761.497)" fill="#fff"/>
  </g>
</svg>
