<svg xmlns="http://www.w3.org/2000/svg" width="210" height="91.94" viewBox="0 0 210 91.94">
  <g id="tit" transform="translate(3751 -867.839)">
    <path id="Path_23" data-name="Path 23" d="M34.952-23.258v6.252H27.694L25.464-1.958H19.149l2.2-15.049h-6l-2.2,15.049H6.865l2.2-15.049H2v-6.252h8.043l.942-5.906H3.975v-6.252H11.86L13.9-49.334h6.126L18.081-35.416h6l2.042-13.918h6.315L30.4-35.416h6.346v6.252H29.485l-.817,5.906ZM23.2-29.165H17.107l-.817,5.906h5.938ZM66.823-27a13.984,13.984,0,0,1,4.854,5.168A14.109,14.109,0,0,1,73.389-15a14.309,14.309,0,0,1-1.995,7.383,12.946,12.946,0,0,1-5.357,5.105A18.855,18.855,0,0,1,57.461-.8,20.068,20.068,0,0,1,48.57-2.445a12.609,12.609,0,0,1-5.278-5A14.557,14.557,0,0,1,41.313-15,13.991,13.991,0,0,1,42.9-21.64,16.085,16.085,0,0,1,47.659-27a15.164,15.164,0,0,1-3.126-4.477,12.218,12.218,0,0,1-1.052-5.011,12.756,12.756,0,0,1,1.744-6.582,12.013,12.013,0,0,1,4.885-4.618,15.387,15.387,0,0,1,7.257-1.649A14.76,14.76,0,0,1,64.5-47.669a12.251,12.251,0,0,1,4.854,4.728,12.909,12.909,0,0,1,1.775,6.582,11.366,11.366,0,0,1-.927,4.6A17.961,17.961,0,0,1,66.823-27ZM57.084-40.852a4.773,4.773,0,0,0-3.566,1.429,5.016,5.016,0,0,0-1.4,3.66A5.133,5.133,0,0,0,53.6-32.023a4.9,4.9,0,0,0,3.644,1.508,4.872,4.872,0,0,0,3.66-1.477,5.279,5.279,0,0,0,1.429-3.833,4.823,4.823,0,0,0-1.445-3.629A5.236,5.236,0,0,0,57.084-40.852Zm.346,18.536a7.736,7.736,0,0,0-5.341,1.932,5.968,5.968,0,0,0-2.168,4.6,6.259,6.259,0,0,0,2.042,4.728,7.5,7.5,0,0,0,5.372,1.932,7.678,7.678,0,0,0,5.357-1.806,6.005,6.005,0,0,0,1.995-4.665,6.284,6.284,0,0,0-2.074-4.791A7.31,7.31,0,0,0,57.429-22.316Z" transform="translate(-3752.996 917.172)" fill="#fff"/>
    <path id="Path_22" data-name="Path 22" d="M25.261-22.1l-4.724,2.6A8.011,8.011,0,0,0,17.9-21.431a7.9,7.9,0,0,0-3.049-.541,7.093,7.093,0,0,0-5.151,1.9,6.5,6.5,0,0,0-1.967,4.881A6.282,6.282,0,0,0,9.63-10.463,6.854,6.854,0,0,0,14.6-8.632a7.229,7.229,0,0,0,5.932-2.6l4.475,3.059Q21.369-3.449,14.729-3.449q-5.973,0-9.355-3.538a11.605,11.605,0,0,1-3.382-8.283,11.643,11.643,0,0,1,1.644-6.056,11.6,11.6,0,0,1,4.589-4.35,13.7,13.7,0,0,1,6.587-1.582,13.356,13.356,0,0,1,6.056,1.342A11.494,11.494,0,0,1,25.261-22.1Zm16.608-5.161a12,12,0,0,1,6.025,1.6,11.577,11.577,0,0,1,4.4,4.35,11.688,11.688,0,0,1,1.582,5.932,11.892,11.892,0,0,1-1.592,5.994,11.488,11.488,0,0,1-4.339,4.36,11.983,11.983,0,0,1-6.056,1.571,11.3,11.3,0,0,1-8.315-3.465,11.5,11.5,0,0,1-3.444-8.419,11.457,11.457,0,0,1,3.892-8.845A11.369,11.369,0,0,1,41.868-27.259Zm.083,5.349a5.833,5.833,0,0,0-4.4,1.842,6.548,6.548,0,0,0-1.759,4.714,6.669,6.669,0,0,0,1.738,4.787,5.807,5.807,0,0,0,4.4,1.832,5.875,5.875,0,0,0,4.433-1.852,6.618,6.618,0,0,0,1.769-4.766,6.575,6.575,0,0,0-1.738-4.735A5.873,5.873,0,0,0,41.951-21.91ZM58.767-35.417h5.682V-4.032H58.767Zm11.071,0H75.52V-4.032H69.839ZM104.2-13.71H85.947a6.077,6.077,0,0,0,2.112,3.84A6.628,6.628,0,0,0,92.44-8.444a7.575,7.575,0,0,0,5.474-2.227L102.7-8.423a11.3,11.3,0,0,1-4.287,3.757,13.408,13.408,0,0,1-5.932,1.218A11.723,11.723,0,0,1,83.8-6.81a11.439,11.439,0,0,1-3.351-8.419,11.825,11.825,0,0,1,3.34-8.606,11.219,11.219,0,0,1,8.377-3.424,11.635,11.635,0,0,1,8.7,3.424,12.373,12.373,0,0,1,3.351,9.043Zm-5.7-4.475a5.7,5.7,0,0,0-2.217-3.08,6.419,6.419,0,0,0-3.84-1.186,6.782,6.782,0,0,0-4.162,1.332A7.422,7.422,0,0,0,86.2-18.184Zm33.32-3.913-4.724,2.6a8.011,8.011,0,0,0-2.633-1.936,7.9,7.9,0,0,0-3.049-.541,7.093,7.093,0,0,0-5.151,1.9,6.5,6.5,0,0,0-1.967,4.881,6.282,6.282,0,0,0,1.894,4.725,6.854,6.854,0,0,0,4.974,1.831,7.229,7.229,0,0,0,5.932-2.6l4.475,3.059q-3.642,4.724-10.281,4.724-5.973,0-9.355-3.538a11.605,11.605,0,0,1-3.382-8.283,11.644,11.644,0,0,1,1.644-6.056,11.6,11.6,0,0,1,4.589-4.35,13.7,13.7,0,0,1,6.587-1.582,13.356,13.356,0,0,1,6.056,1.342A11.494,11.494,0,0,1,131.817-22.1Zm6.659-12.925h5.661v8.346h3.372v4.891h-3.372V-4.032h-5.661V-21.785h-2.914v-4.891h2.914ZM154.926-36a3.489,3.489,0,0,1,2.57,1.082,3.589,3.589,0,0,1,1.072,2.622,3.547,3.547,0,0,1-1.061,2.591,3.448,3.448,0,0,1-2.539,1.072,3.5,3.5,0,0,1-2.591-1.093,3.648,3.648,0,0,1-1.072-2.654,3.489,3.489,0,0,1,1.061-2.56A3.489,3.489,0,0,1,154.926-36Zm-2.851,9.324h5.7V-4.032h-5.7Zm22.331-.583a12,12,0,0,1,6.025,1.6,11.577,11.577,0,0,1,4.4,4.35,11.688,11.688,0,0,1,1.582,5.932,11.893,11.893,0,0,1-1.592,5.994,11.488,11.488,0,0,1-4.339,4.36,11.983,11.983,0,0,1-6.056,1.571,11.3,11.3,0,0,1-8.315-3.465,11.5,11.5,0,0,1-3.444-8.419,11.457,11.457,0,0,1,3.892-8.845A11.369,11.369,0,0,1,174.406-27.259Zm.083,5.349a5.834,5.834,0,0,0-4.4,1.842,6.548,6.548,0,0,0-1.759,4.714,6.668,6.668,0,0,0,1.738,4.787,5.807,5.807,0,0,0,4.4,1.832,5.875,5.875,0,0,0,4.433-1.852,6.618,6.618,0,0,0,1.769-4.766,6.575,6.575,0,0,0-1.738-4.735A5.873,5.873,0,0,0,174.489-21.91Zm17.419-4.766h5.661v2.31a13.661,13.661,0,0,1,3.507-2.258,8.512,8.512,0,0,1,3.216-.635,7.79,7.79,0,0,1,5.723,2.352q1.977,2,1.977,5.911V-4.032h-5.619v-9.928a25.1,25.1,0,0,0-.364-5.39,3.691,3.691,0,0,0-1.27-2.029,3.557,3.557,0,0,0-2.237-.7,4.2,4.2,0,0,0-2.966,1.155,6.162,6.162,0,0,0-1.717,3.195,25.736,25.736,0,0,0-.25,4.6v9.1h-5.661Z" transform="translate(-3752.992 963.228)" fill="#fff"/>
  </g>
</svg>
