<svg id="instagram_white" xmlns="http://www.w3.org/2000/svg" width="22" height="22" viewBox="0 0 22 22">
  <path id="Shape" d="M11,22c-2.939,0-3.335-.012-4.536-.065a8.12,8.12,0,0,1-2.67-.512,5.374,5.374,0,0,1-1.947-1.267A5.369,5.369,0,0,1,.577,18.2a8.043,8.043,0,0,1-.512-2.668C.012,14.335,0,13.939,0,11S.012,7.67.065,6.465A8.1,8.1,0,0,1,.577,3.8,5.385,5.385,0,0,1,1.849,1.85,5.355,5.355,0,0,1,3.8.577,8.1,8.1,0,0,1,6.47.065C7.671.012,8.067,0,11.006,0c2.964,0,3.356.013,4.54.069a8.106,8.106,0,0,1,2.67.511,5.387,5.387,0,0,1,1.948,1.268A5.145,5.145,0,0,1,21.423,3.8a8.048,8.048,0,0,1,.512,2.669c.052,1.2.065,1.6.065,4.534s-.012,3.335-.065,4.534a8.094,8.094,0,0,1-.512,2.669,5.607,5.607,0,0,1-3.216,3.214,8.052,8.052,0,0,1-2.669.512C14.338,21.988,13.942,22,11,22Zm0-20.018c-2.923,0-3.273.011-4.447.065a6.039,6.039,0,0,0-2.042.378,3.449,3.449,0,0,0-1.264.824,3.4,3.4,0,0,0-.821,1.264,6.057,6.057,0,0,0-.378,2.042C2,7.728,1.989,8.078,1.989,11s.011,3.267.065,4.445a6.034,6.034,0,0,0,.378,2.041,3.458,3.458,0,0,0,.826,1.264,3.4,3.4,0,0,0,1.264.821,6.062,6.062,0,0,0,2.042.378c1.124.05,1.463.065,4.445.065s3.318-.015,4.447-.065a6.068,6.068,0,0,0,2.042-.378,3.482,3.482,0,0,0,1.264-.825,3.4,3.4,0,0,0,.821-1.264,6.058,6.058,0,0,0,.378-2.041c.05-1.124.065-1.463.065-4.443s-.015-3.317-.065-4.445a6.06,6.06,0,0,0-.378-2.041,3.449,3.449,0,0,0-.826-1.264,3.381,3.381,0,0,0-1.264-.821,6.035,6.035,0,0,0-2.042-.378C14.279,1.994,13.929,1.982,11.006,1.982Z" transform="translate(0 0)" fill="#fff"/>
  <path id="Shape-2" data-name="Shape" d="M5.654,11.3a5.651,5.651,0,1,1,5.654-5.651A5.659,5.659,0,0,1,5.654,11.3Zm0-9.318A3.666,3.666,0,1,0,9.321,5.651,3.671,3.671,0,0,0,5.654,1.985Z" transform="translate(5.352 5.351)" fill="#fff"/>
  <path id="Shape-3" data-name="Shape" d="M2.64,1.32A1.32,1.32,0,1,1,1.32,0,1.32,1.32,0,0,1,2.64,1.32Z" transform="translate(15.563 3.808)" fill="#fff"/>
</svg>
