<svg xmlns="http://www.w3.org/2000/svg" width="550.054" height="42.058" viewBox="0 0 550.054 42.058">
  <g id="logo" transform="translate(-154.306 -205.917)">
    <path id="Path_1" data-name="Path 1" d="M187.79,205.917H154.306v42.045h6.936v-16.64H187.8q4.586,0,6.678-1.9t2.093-6.168v-9.275q0-4.273-2.093-6.17T187.79,205.917Zm1.841,15.509q0,2.487-1.009,3.408a5.21,5.21,0,0,1-3.508.923H161.242V211.32h23.872a5.231,5.231,0,0,1,3.469.923q1.046.923,1.048,3.408Z" transform="translate(0 0)" fill="#1a1311"/>
    <path id="Path_2" data-name="Path 2" d="M226.588,216.386H208.2c-4.443,0-6.7,2.076-6.7,6.172v17.615c0,2.861.558,4.846,1.661,5.9s3.15,1.587,6.1,1.587h22.713v-5H207.739l0-7.085h18.846c4.445,0,6.7-2.052,6.7-6.1v-6.915C233.287,218.462,231.032,216.386,226.588,216.386Zm.465,11.582a4.15,4.15,0,0,1-.338,1.926c-.349.647-1.268.976-2.733.976H207.74v-6.586c0-1.954,1-2.9,3.07-2.9h13.173c2.067,0,3.07.95,3.07,2.9Z" transform="translate(1.433 0.318)" fill="#1a1311"/>
    <path id="Path_3" data-name="Path 3" d="M264.478,216.386H239.394v31.272h6.236V221.38h16.244c2.066,0,3.07.95,3.07,2.9v6.525h6.233v-8.251C271.177,218.462,268.922,216.386,264.478,216.386Z" transform="translate(2.584 0.318)" fill="#1a1311"/>
    <path id="Path_4" data-name="Path 4" d="M303.349,209.886H286.033c-4.444,0-6.7,2.077-6.7,6.173v14.815h-3.689V235.8h3.689v12.059h6.234V235.8H292.9v-4.922h-7.327v-13.09c0-1.953,1-2.9,3.069-2.9h12.109c2.066,0,3.069.95,3.069,2.9v3.341h6.233v-5.066C310.048,211.963,307.793,209.886,303.349,209.886Z" transform="translate(3.685 0.121)" fill="#1a1311"/>
    <path id="Path_5" data-name="Path 5" d="M342.938,242.659H320.785V216.386h-6.229v23.787c0,2.86.558,4.845,1.66,5.9s3.147,1.587,6.094,1.587h19.1c2.994,0,5.059-.535,6.136-1.589s1.624-3.036,1.624-5.9V216.386h-6.233Z" transform="translate(4.866 0.318)" fill="#1a1311"/>
    <path id="Path_6" data-name="Path 6" d="M649.68,216.386H631.293c-4.444,0-6.7,2.076-6.7,6.172v17.615c0,2.861.56,4.846,1.66,5.9s3.15,1.587,6.1,1.587H655.07v-5H630.83l0-7.085h18.846c4.446,0,6.7-2.052,6.7-6.1v-6.915C656.378,218.462,654.124,216.386,649.68,216.386Zm.466,11.582a4.13,4.13,0,0,1-.341,1.926c-.347.647-1.267.976-2.73.976H630.832l0-6.586c0-1.954,1-2.9,3.072-2.9h13.173c2.067,0,3.072.95,3.072,2.9Z" transform="translate(14.281 0.318)" fill="#1a1311"/>
    <path id="Path_7" data-name="Path 7" d="M571.831,216.386h-19.1c-2.946,0-5,.534-6.1,1.587s-1.662,3.036-1.662,5.9v16.3c0,2.86.559,4.845,1.662,5.9s3.15,1.587,6.1,1.587h19.1c2.994,0,5.059-.535,6.136-1.589s1.624-3.036,1.624-5.9v-16.3c0-2.858-.547-4.842-1.624-5.9S574.825,216.386,571.831,216.386Zm1.527,26.273H551.2V221.384h22.155Z" transform="translate(11.863 0.318)" fill="#1a1311"/>
    <path id="Path_8" data-name="Path 8" d="M387.554,216.386h-24.6c-2.948,0-5,.533-6.1,1.586s-1.662,3.039-1.662,5.9v23.788h6.235V221.382h10.707v26.275h6.235V221.382h10.707v26.275h6.235V223.87c0-2.857-.545-4.841-1.624-5.9S390.59,216.386,387.554,216.386Z" transform="translate(6.1 0.318)" fill="#1a1311"/>
    <path id="Path_9" data-name="Path 9" d="M426.258,216.386H407.872c-4.443,0-6.7,2.076-6.7,6.172v17.615c0,2.86.56,4.845,1.661,5.9s3.151,1.587,6.1,1.587h22.712v-5H407.408l0-7.085h18.846c4.445,0,6.7-2.052,6.7-6.1v-6.915C432.958,218.462,430.7,216.386,426.258,216.386Zm.464,11.582a4.13,4.13,0,0,1-.34,1.926c-.347.647-1.266.976-2.729.976H407.411l0-6.586c0-1.954,1-2.9,3.072-2.9h13.173c2.066,0,3.069.95,3.069,2.9Z" transform="translate(7.496 0.318)" fill="#1a1311"/>
    <path id="Path_10" data-name="Path 10" d="M516.744,216.386h-6.232v23.787c0,2.86.56,4.845,1.66,5.9s3.15,1.587,6.1,1.587h22.471v-5h-24Z" transform="translate(10.816 0.318)" fill="#1a1311"/>
    <path id="Path_11" data-name="Path 11" d="M671.331,242.856l.014-18.157h11.547v-4.922H671.345v-9.89h-6.235v9.89h-3.689V224.7h3.689v16.984c0,4.1,2.253,6.173,6.7,6.173h17.151v-5Z" transform="translate(15.399 0.121)" fill="#1a1311"/>
    <path id="Path_12" data-name="Path 12" d="M494.2,205.918H470.656q-5.7,0-7.78,2.078t-2.078,7.862v22.163q0,5.787,2.078,7.863t7.78,2.078H494.2q5.7,0,7.741-2.037t2.037-7.9v-5.664h-7.008V242.1H467.8V211.54h29.17V220.4h7.008v-4.619q0-5.842-2.037-7.851T494.2,205.918Z" transform="translate(9.307 0)" fill="#1a1311"/>
    <path id="Path_13" data-name="Path 13" d="M611.011,229.112h-20V221.1h21.84v3.967h5.369V223.3q0-3.9-1.729-5.368t-5.918-1.47H593.215q-4.41,0-5.993,1.543t-1.583,5.883v2.942q0,4.266,1.583,5.809t5.993,1.545h20.074v8.824h-23.53v-4.467h-5.367v1.819q0,4.241,1.582,5.76t6.065,1.521h18.974q4.409,0,5.993-1.55t1.582-5.833v-3.766q0-4.281-1.582-5.831T611.011,229.112Z" transform="translate(13.06 0.32)" fill="#1a1311"/>
  </g>
</svg>
