<svg xmlns="http://www.w3.org/2000/svg" width="671.161" height="44.835" viewBox="0 0 671.161 44.835">
  <g id="tit_concept_02" transform="translate(-102.499 -3319.085)">
    <path id="パス_19" data-name="パス 19" d="M8.183-18.424a34.172,34.172,0,0,1-5.145-.245v5.145a27.544,27.544,0,0,1,4.655-.245H9.31A71.867,71.867,0,0,1,6.125-1.274l5.439.441c.343-1.274.49-1.764.735-2.646H33.075c-.392,1.617-.931,2.009-2.548,2.009a35.194,35.194,0,0,1-4.8-.49,16.689,16.689,0,0,1,.931,4.9c2.156.2,3.234.245,4.018.245,2.842,0,4.214-.245,5.194-.98,1.274-.931,1.764-2.107,2.5-5.684H39.69a33.6,33.6,0,0,1,4.459.2v-5a28.991,28.991,0,0,1-4.263.2h-.833c.2-1.617.343-3.185.539-5.684h1.715a39.252,39.252,0,0,1,4.606.2v-5.1a27.358,27.358,0,0,1-4.508.245H39.886c.147-2.254.2-3.136.2-3.528.245-5.586.245-5.586.392-6.713-1.029.1-2.352.147-4.312.147H14.5c-2.45-.049-2.45-.049-3.136-.1.735-.98,1.176-1.519,2.156-2.891H38.612a49.323,49.323,0,0,1,5.88.294v-5.292a47.632,47.632,0,0,1-5.88.294h-22.3c.392-.735.49-.931.931-1.862a19.271,19.271,0,0,1,1.029-1.96l-5.488-.882a15.552,15.552,0,0,1-1.323,3.283A27.648,27.648,0,0,1,2.5-27.1a21.785,21.785,0,0,1,3.185,4.361,41.674,41.674,0,0,0,5.243-5.341v.588a68.823,68.823,0,0,1-.882,9.065ZM13.328-8.085c.441-2.009.637-3.087,1.078-5.684h7.2c-.294,2.156-.441,3.185-.588,4.067-.2,1.029-.2,1.029-.294,1.617Zm1.764-10.339c.343-2.6.392-2.94.686-5.439h6.909c-.2,2.695-.343,4.508-.49,5.439ZM25.676-8.085c.49-3.038.49-3.038.833-5.684H34.5c-.147,2.009-.245,3.038-.588,5.684Zm1.372-10.339c.2-1.568.2-1.568.441-5.439h7.595c-.2,3.969-.2,3.969-.245,5.439ZM58.163-3.087a48.99,48.99,0,0,1-.294,5.733H63.5V-.2H85.358V2.646h5.635a48.926,48.926,0,0,1-.245-5.733V-33.418a41.239,41.239,0,0,1,.245-4.851,35.129,35.129,0,0,1-5.047.245H63.161a38.636,38.636,0,0,1-5.243-.245c.147,1.568.245,3.234.245,5.047ZM63.5-33.026H85.358V-22.1H63.5Zm0,15.876H85.358v12H63.5Zm57.036,5.341c0,1.176-.049,3.038-.147,4.459v.2c0,.784.294.931,1.96.931a7.256,7.256,0,0,0,3.038-.392c.245-.147.343-.441.343-1.029V-10c0-1.568-.1-3.822-.147-4.7,7.448-3.626,11.907-5.537,14.308-6.174.637-.147.833-.343.833-.637,0-.833-2.156-3.92-4.165-5.978a14.918,14.918,0,0,1-4.263,3.283c-.294.2-2.891,1.617-7.742,4.263-.98-2.744-2.45-4.018-4.655-4.018a12.881,12.881,0,0,0-5.831,1.421,27.587,27.587,0,0,0,4.018-5.929,99.461,99.461,0,0,0,11.466-1.715c.637-.147.833-.392.833-.931a29.181,29.181,0,0,0-.49-3.822.619.619,0,0,0-.686-.441,6.573,6.573,0,0,0-1.568.343c-1.715.392-4.165.882-6.958,1.274a1.779,1.779,0,0,1,.147-.343,31.448,31.448,0,0,1,1.372-2.94,1.168,1.168,0,0,0,.2-.588c0-.833-2.009-1.568-6.37-2.3a19.08,19.08,0,0,1-1.421,6.86c-2.205.1-4.312.147-6.223.147a29.09,29.09,0,0,1-5-.294,42.211,42.211,0,0,0,.441,4.557c.245.833.392.98,1.127.98,1.911,0,3.724-.049,7.2-.294a30.119,30.119,0,0,1-9.359,9.653c-1.176.735-1.274.833-1.274,1.274a4.844,4.844,0,0,0,.784,1.813c1.029,1.715,2.058,2.842,2.548,2.842.392,0,.539-.1,2.009-1.617a32.995,32.995,0,0,1,4.116-3.381,11.817,11.817,0,0,1,6.419-2.3c1.519,0,2.254.686,2.646,2.3-4.508,2.548-5,2.891-7.1,4.557-2.646,2.107-3.969,4.606-3.969,7.448a6.483,6.483,0,0,0,4.263,6.468c2.352.98,5.537,1.372,11.515,1.372a90.68,90.68,0,0,0,10.192-.539c.637-.147.882-.441.882-1.176a16.154,16.154,0,0,0-.49-4.263.828.828,0,0,0-.735-.588h-.245a31.627,31.627,0,0,1-3.577.784,74.049,74.049,0,0,1-8.82.588c-3.087,0-5.488-.343-6.566-.98a2.033,2.033,0,0,1-1.078-1.911c0-2.156,1.372-3.577,6.223-6.419ZM146.02-6.86c0,.294.2.49.588.784a31.571,31.571,0,0,1,9.114,9.31c.245.49.539.686.833.686.343,0,.735-.294,2.6-2.009C160.573.637,160.671.539,160.671.1c0-.686-2.744-3.969-5.194-6.223-2.156-2.058-5.1-4.214-5.733-4.214-.343,0-.588.2-1.47.98C146.118-7.35,146.02-7.2,146.02-6.86Zm37.07-30.49h7.541q6.119,0,8.823,1.13a8.974,8.974,0,0,1,4.266,3.656,11.292,11.292,0,0,1,1.562,6.056,10.168,10.168,0,0,1-2.044,6.5A10.6,10.6,0,0,1,197.69-16.4a31.9,31.9,0,0,1-7.49.584V0H183.09Zm7.109,14.6h2.26a12.245,12.245,0,0,0,3.707-.381,3.3,3.3,0,0,0,1.638-1.257,3.676,3.676,0,0,0,.6-2.12,3.387,3.387,0,0,0-1.676-3.148,9.58,9.58,0,0,0-4.52-.736H190.2Zm46.873,10.943H214.805a7.413,7.413,0,0,0,2.577,4.685,8.086,8.086,0,0,0,5.345,1.739A9.241,9.241,0,0,0,229.4-8.1l5.84,2.742a13.784,13.784,0,0,1-5.23,4.583A16.357,16.357,0,0,1,222.778.711a14.3,14.3,0,0,1-10.588-4.1A13.955,13.955,0,0,1,208.1-13.66a14.426,14.426,0,0,1,4.075-10.5,13.687,13.687,0,0,1,10.22-4.177,14.194,14.194,0,0,1,10.613,4.177q4.088,4.177,4.088,11.032Zm-6.957-5.459a6.954,6.954,0,0,0-2.7-3.758,7.831,7.831,0,0,0-4.685-1.447,8.274,8.274,0,0,0-5.078,1.625,9.055,9.055,0,0,0-2.539,3.58ZM242.1-27.625h5.941v3.479A7.423,7.423,0,0,1,250.6-27.27a6.187,6.187,0,0,1,3.5-1.066,6.483,6.483,0,0,1,2.818.711l-2.158,5.967a4.766,4.766,0,0,0-2.006-.609,3.174,3.174,0,0,0-2.7,1.98q-1.1,1.98-1.1,7.77l.025,1.346V0H242.1Zm18.6,0h2.463q.025-5.434.178-6.424a5.3,5.3,0,0,1,1.917-3.618A7.162,7.162,0,0,1,269.886-39a14.428,14.428,0,0,1,4.875.99v5.281a9.292,9.292,0,0,0-2.463-.432,2.592,2.592,0,0,0-1.777.508,2.2,2.2,0,0,0-.406,1.574l-.025,3.453h4.393v5.891h-4.393V0h-6.932V-21.734h-2.463Zm18.864,0h7.008v13.3a18.467,18.467,0,0,0,.533,5.4,4.708,4.708,0,0,0,1.714,2.349,4.9,4.9,0,0,0,2.907.838,5.069,5.069,0,0,0,2.933-.825,4.841,4.841,0,0,0,1.79-2.425,18.643,18.643,0,0,0,.432-5.1V-27.625h6.957V-15.92q0,7.236-1.143,9.9a10.8,10.8,0,0,1-4.113,4.989A12.591,12.591,0,0,1,291.67.711a12.25,12.25,0,0,1-7.351-2.031,10.731,10.731,0,0,1-3.948-5.662q-.812-2.514-.812-9.141Zm30.66,0h6.957v3.174a11.824,11.824,0,0,1,3.948-2.92,11.527,11.527,0,0,1,4.735-.965,8.8,8.8,0,0,1,4.672,1.27,9.174,9.174,0,0,1,3.352,3.707,11.189,11.189,0,0,1,4.05-3.707,11.037,11.037,0,0,1,5.243-1.27,9.7,9.7,0,0,1,5.18,1.371,7.92,7.92,0,0,1,3.212,3.58q.978,2.209.978,7.186V0h-6.982V-14.016q0-4.7-1.168-6.36a4,4,0,0,0-3.5-1.663,5.316,5.316,0,0,0-3.187,1.016,6,6,0,0,0-2.095,2.806,17.438,17.438,0,0,0-.686,5.751V0h-6.982V-13.381a18.877,18.877,0,0,0-.546-5.37,4.859,4.859,0,0,0-1.638-2.476,4.3,4.3,0,0,0-2.641-.812,5.2,5.2,0,0,0-3.136,1.028,6.133,6.133,0,0,0-2.107,2.882,17.852,17.852,0,0,0-.7,5.84V0h-6.957ZM386.3-11.807H364.034a7.413,7.413,0,0,0,2.577,4.685,8.086,8.086,0,0,0,5.345,1.739A9.241,9.241,0,0,0,378.634-8.1l5.84,2.742a13.784,13.784,0,0,1-5.23,4.583A16.357,16.357,0,0,1,372.007.711a14.3,14.3,0,0,1-10.588-4.1,13.955,13.955,0,0,1-4.088-10.271,14.426,14.426,0,0,1,4.075-10.5,13.687,13.687,0,0,1,10.22-4.177,14.194,14.194,0,0,1,10.613,4.177q4.088,4.177,4.088,11.032Zm-6.957-5.459a6.954,6.954,0,0,0-2.7-3.758,7.831,7.831,0,0,0-4.685-1.447,8.274,8.274,0,0,0-5.078,1.625,9.055,9.055,0,0,0-2.539,3.58Zm30.793-3.412c-4.116,2.45-5.978,4.067-7.693,6.615a10.76,10.76,0,0,0-1.96,6.223,7.964,7.964,0,0,0,3.381,6.86c2.6,1.764,6.762,2.6,13.034,2.6a95.62,95.62,0,0,0,10.731-.588A.965.965,0,0,0,428.464-.1a33.163,33.163,0,0,0-.49-4.655.88.88,0,0,0-.833-.588,4.075,4.075,0,0,0-.637.1,68.05,68.05,0,0,1-11.515,1.078c-6.321,0-8.82-1.225-8.82-4.214,0-3.038,2.7-5.733,8.673-8.673a82.162,82.162,0,0,1,11.417-4.41c.833-.245,1.176-.588,1.176-1.127,0-.686-.98-2.5-2.205-4.165-.735-.931-1.176-1.274-1.617-1.274-.245,0-.343.049-.98.539-2.352,1.813-6.664,4.067-7.84,4.067-.539,0-.833-.343-1.127-1.274a35.192,35.192,0,0,1-1.029-8.036,10.757,10.757,0,0,1,.49-3.332,3.7,3.7,0,0,0,.147-.833c0-.539-.343-.882-1.078-1.078a28.725,28.725,0,0,0-6.223-.539,22.756,22.756,0,0,1,.882,5.194c.588,6.027.784,7.35,1.421,9.506A5.644,5.644,0,0,0,410.138-20.678ZM441.3-24.7c0,6.86.539,11.809,1.666,15.729C444.732-2.94,447.574.1,451.347.1c2.6,0,5.047-1.519,6.958-4.312a9.211,9.211,0,0,0,1.715-3.871,1.8,1.8,0,0,0-.392-1.029,14.618,14.618,0,0,1-2.646-5c-1.813,5.439-3.479,7.791-5.488,7.791-1.323,0-2.45-1.323-3.185-3.626-.98-2.989-1.372-6.909-1.372-13.181,0-4.459.2-6.321.833-7.987a1.482,1.482,0,0,0,.2-.784c0-.539-.392-.833-1.568-1.274a22.1,22.1,0,0,0-5.243-1.078c.1,1.078.147,2.989.147,4.41Zm24.892-1.96c3.332,4.116,3.43,4.263,4.8,7.105a34.038,34.038,0,0,1,3.038,9.7c.147.882.343,1.127.784,1.127a15.552,15.552,0,0,0,4.018-1.372c1.029-.539,1.274-.784,1.274-1.274a30.222,30.222,0,0,0-2.107-7.1,32.521,32.521,0,0,0-6.615-10.094,1.438,1.438,0,0,0-.931-.49C469.869-29.057,468.252-28.175,466.194-26.656Zm22.932,6.223c1.127,3.528,2.5,5.978,3.332,5.978a2.955,2.955,0,0,0,.98-.392c6.076-3.381,11.858-5.145,17.15-5.145a5.154,5.154,0,0,1,5.39,5.047c0,5.586-5.488,9.016-16.268,10.143a11.26,11.26,0,0,1,2.5,3.969c.2.49.49.637,1.078.637a26.388,26.388,0,0,0,5.341-1.029,23.807,23.807,0,0,0,8.526-4.116,11.96,11.96,0,0,0,4.41-9.359c0-6.125-4.263-9.9-11.172-9.9-3.332,0-7.791.784-13.965,2.5A46.017,46.017,0,0,1,489.126-20.433ZM534.108-38.71a46.479,46.479,0,0,1,.343,7.5c0,.441-.049,1.47-.1,3.185-.392,11.417-.441,14.357-.441,18.179,0,4.851.735,7.4,2.6,9.359,1.764,1.764,4.508,2.7,8.232,2.7,5.635,0,11.025-2.254,15.876-6.615,2.45-2.2,3.381-3.381,3.381-4.263a2.907,2.907,0,0,0-.245-1.127,16.724,16.724,0,0,1-1.764-4.8,29.209,29.209,0,0,1-4.655,5.684c-3.822,3.577-7.987,5.39-12.4,5.39-2.744,0-4.459-.833-5-2.45a12.469,12.469,0,0,1-.392-3.528c0-4.851.2-10.976.588-18.865a27.681,27.681,0,0,1,1.127-7.35,3.016,3.016,0,0,0,.294-1.176c0-.539-.343-.784-1.568-1.127A28.039,28.039,0,0,0,534.108-38.71ZM589.037-17.2a42.257,42.257,0,0,0,8.134-.931c1.764-.392,1.911-.49,1.911-.931a13.676,13.676,0,0,0-.98-4.312.381.381,0,0,0-.343-.147.533.533,0,0,0-.245.049A33.125,33.125,0,0,1,588.988-22c.049-3.283.245-5.243.588-6.076.294-.588.294-.637.294-.882,0-.49-.2-.686-.882-.882a38.117,38.117,0,0,0-5.243-.441,20.638,20.638,0,0,1,.441,5.341c.049,4.8.2,8.869.539,14.749-1.813-.147-2.5-.2-3.381-.2-4.8,0-8.232,2.695-8.232,6.468,0,3.626,2.989,5.831,7.987,5.831,5.586,0,8.624-2.205,8.624-6.223A18.986,18.986,0,0,1,595.9-.539c1.617,1.47,1.617,1.47,1.911,1.47.392,0,.686-.245,1.421-1.176A7.543,7.543,0,0,0,600.9-3.038c0-.931-.539-1.421-3.773-3.283a35.537,35.537,0,0,0-7.546-3.234C589.184-13.426,589.086-14.8,589.037-17.2ZM584.774-5.733a3.6,3.6,0,0,1-.2,1.519c-.441,1.225-1.617,1.764-3.773,1.764-2.205,0-3.283-.539-3.283-1.715,0-1.372,1.225-2.058,3.577-2.058A10.732,10.732,0,0,1,584.774-5.733Zm35.133-8.232c-1.127,2.4-1.617,3.332-2.989,6.419-.147-2.45-.2-3.969-.2-5.1,0-7.007,1.813-17.395,3.43-19.992.539-.784.588-.931.588-1.274,0-.49-.245-.735-1.078-1.078a22.608,22.608,0,0,0-5.292-1.568c-.2,1.617-.441,3.087-.931,5.733a74.822,74.822,0,0,0-1.715,16.072,64.681,64.681,0,0,0,1.666,14.7c.2.588.343.735.98.735.392,0,.735.049.98.049h.2A14.724,14.724,0,0,0,618,.392c.2-.1.343-.392.49-.931a53.071,53.071,0,0,1,2.744-8.428c.441-1.078.49-1.127.49-1.47a1.225,1.225,0,0,0-.2-.686A14.853,14.853,0,0,1,619.907-13.965Zm8.575-18.718c-.294,0-.441.1-.49.294a27.342,27.342,0,0,0-.245,3.675c0,.882.1,1.225.343,1.372.49.294,4.263.539,8.477.539a52,52,0,0,0,8.869-.637c.539-.1.686-.343.686-1.078a34.511,34.511,0,0,0-.245-3.969c-.1-.392-.245-.539-.588-.539a1.511,1.511,0,0,0-.441.049,54.908,54.908,0,0,1-9.506.784,43.175,43.175,0,0,1-6.615-.441A.533.533,0,0,0,628.482-32.683Zm.392,21.56c-2.646,1.617-3.675,2.548-3.675,3.234,0,1.323,2.254,4.018,4.41,5.341,2.3,1.372,5.1,1.911,9.6,1.911a33.3,33.3,0,0,0,8.624-1.029c.686-.2.833-.343.833-.833a39.491,39.491,0,0,0-.441-4.606c-.049-.49-.294-.686-.637-.686a2.458,2.458,0,0,0-.686.147,24.91,24.91,0,0,1-8.036,1.127c-3.283,0-5.145-.294-6.713-1.127A6.909,6.909,0,0,1,628.874-11.123Zm36.5-1.617A8.3,8.3,0,0,0,657.1-4.459a8.313,8.313,0,0,0,8.281,8.33,8.313,8.313,0,0,0,8.281-8.33A8.271,8.271,0,0,0,665.379-12.74Zm0,3.822a4.475,4.475,0,0,1,4.459,4.459A4.486,4.486,0,0,1,665.379.049a4.486,4.486,0,0,1-4.459-4.508A4.475,4.475,0,0,1,665.379-8.918Z" transform="translate(100 3360)"/>
  </g>
</svg>
